<svg width="15" height="27" viewBox="0 0 15 27" fill="none" xmlns="http://www.w3.org/2000/svg">
<path d="M15 18.015C15 13.4 11.22 12.874 8.18305 12.452C4.87305 11.992 3.00005 11.592 3.00005 8.742C3.00005 6.35 5.50705 5.5 7.65405 5.5C8.72399 5.46544 9.78683 5.68569 10.7549 6.14262C11.723 6.59954 12.5686 7.28004 13.222 8.128L14.778 6.872C14.0783 5.97217 13.2076 5.21952 12.216 4.6573C11.2244 4.09509 10.1315 3.73441 9.00005 3.596V0.5H7.00005V3.522C3.38505 3.742 1.00005 5.782 1.00005 8.742C1.00005 13.472 4.83005 14.005 7.90705 14.432C11.16 14.885 13 15.274 13 18.015C13 21.047 9.86705 21.5 8.00005 21.5C4.57005 21.5 3.12205 20.536 1.77805 18.872L0.222046 20.128C1.01481 21.1727 2.04015 22.0182 3.21671 22.5975C4.39327 23.1767 5.68865 23.4737 7.00005 23.465V26.5H9.00005V23.455C12.726 23.151 15 21.128 15 18.015Z" fill="#263238" fill-opacity="0.4"/>
</svg>
