<svg width="32" height="33" viewBox="0 0 32 33" fill="none" xmlns="http://www.w3.org/2000/svg">
<path d="M9.33331 24.5V9.90267C9.33322 9.59243 9.43617 9.29095 9.62601 9.04558C9.81584 8.80021 10.0818 8.62483 10.3821 8.54701C10.6824 8.46918 11.0001 8.49331 11.2852 8.61561C11.5703 8.7379 11.8067 8.95143 11.9573 9.22267L20.0426 23.7773C20.1932 24.0486 20.4297 24.2621 20.7148 24.3844C20.9999 24.5067 21.3175 24.5308 21.6179 24.453C21.9182 24.3752 22.1841 24.1998 22.374 23.9544C22.5638 23.709 22.6667 23.4076 22.6666 23.0973V8.5" stroke="#263238" stroke-opacity="0.4" stroke-width="2" stroke-linecap="round" stroke-linejoin="round"/>
<path d="M6.66666 13.8333H25.3333" stroke="#263238" stroke-opacity="0.4" stroke-width="2" stroke-linecap="round" stroke-linejoin="round"/>
<path d="M6.66666 19.1667H25.3333" stroke="#263238" stroke-opacity="0.4" stroke-width="2" stroke-linecap="round" stroke-linejoin="round"/>
</svg>
