<svg width="46" height="45" viewBox="0 0 46 45" fill="none" xmlns="http://www.w3.org/2000/svg">
<path d="M45.5 33.5017L45.0095 33.2137C44.972 33.192 41.2243 30.9683 40.2927 28.2698L40.085 27.672L39.701 28.1737C39.689 28.1895 39.1565 28.848 37.6663 29.6205C36.563 23.3407 32.81 15.8438 27.878 12.6473C29.288 12.7613 30.7025 12.6442 32.0675 12.1478C32.8895 11.8493 32.5347 10.5097 31.7052 10.8127C30.5862 11.22 29.465 11.331 28.346 11.274C31.0932 8.75625 33.2503 4.8975 33.2503 2.076C33.2503 1.398 33.2502 0.13575 32.2453 0.13575C31.8417 0.13575 31.5155 0.38775 31.0647 0.73575C30.3732 1.269 29.3293 2.076 27.7955 2.076C27.2113 2.076 26.1418 1.4595 25.2822 0.9645C24.2435 0.36675 23.5798 0 23.0217 0C22.0977 0 20.7395 0.747 19.541 1.40625C19.0535 1.674 18.3868 2.0415 18.2488 2.07675C16.5118 2.07675 15.503 1.27575 14.834 0.7455C14.444 0.435 14.1613 0.21 13.784 0.21C12.7955 0.21 12.7955 1.39575 12.7955 2.769C12.7955 5.4195 14.8145 8.91825 17.4583 11.2695C15.7925 11.3887 14.15 11.892 12.9957 13.0103C12.3582 13.6267 13.3242 14.6047 13.9595 13.9897C14.9187 13.0597 16.1765 12.6615 17.522 12.5842C17.5602 12.7215 17.6068 12.8565 17.6637 12.9893C12.0268 17.04 8.0225 26.6587 8.0225 33.1522C8.0225 33.7927 8.072 34.3725 8.1485 34.9185C6.695 34.2728 6.16475 33.7065 6.15425 33.6937L5.76725 33.2475L5.57675 33.81C4.7345 36.288 1.073 38.4375 1.03625 38.4593L0.5 38.7705L1.04525 39.0653C1.2365 39.1688 1.42625 39.2595 1.6175 39.3577L1.2725 39.597L1.45475 41.877L15.7445 45L21.1625 41.5343C21.7092 41.5373 22.2628 41.5387 22.826 41.5387L29.159 45L43.4757 40.5V38.0933L43.097 37.866C43.286 37.746 43.475 37.6238 43.6632 37.4977L44.165 37.1625L44.0548 37.1085L44.693 36.9338L44.801 34.4318L44.432 34.17C44.6285 34.0522 44.8242 33.9323 45.0208 33.8078L45.5 33.5017ZM14.1597 2.769C14.1597 2.436 14.1643 2.1765 14.171 1.97475C14.2858 2.06475 14.4193 2.163 14.5618 2.26425C14.999 3.31125 15.8263 4.81875 17.2288 5.76825C18.9328 6.92325 18.7062 5.59575 19.6152 4.38375C20.5243 3.1725 21.1392 2.538 22.6618 5.6535C23.3255 7.01175 24.4318 3.216 25.4832 2.66175C25.7615 2.81325 26.039 2.95425 26.3113 3.07425C28.1968 6.14025 29.0705 5.184 30.7453 2.6355C31.2057 2.3655 31.5837 2.076 31.8845 1.84425C31.886 1.914 31.8875 1.99125 31.8875 2.0775C31.8875 4.485 29.9202 7.938 27.5112 10.1903C27.3975 9.9012 27.2346 9.634 27.0298 9.4005C26.057 8.29875 24.5368 9.5205 23.816 10.3222C22.5373 9.91125 20.4538 8.7795 19.0963 9.4275C18.7582 9.58433 18.4477 9.7948 18.1768 10.0507C15.9567 8.02725 14.1597 5.106 14.1597 2.769ZM26.3127 10.9995C25.9765 10.9282 25.6421 10.8482 25.31 10.7595C25.7285 10.3988 26.1125 10.2728 26.2738 10.809C26.291 10.8675 26.3015 10.9342 26.3127 10.9995ZM20.6127 11.4653C20.3645 11.418 20.1095 11.3752 19.847 11.3415C19.648 11.2167 19.4531 11.0854 19.2628 10.9478C19.9482 10.488 21.1303 10.7325 22.2598 11.1157C21.7025 11.172 21.1528 11.2935 20.6127 11.4653ZM20.9533 13.4452C20.5333 13.5503 20.0758 13.5083 19.6805 13.3507C19.841 13.266 20.003 13.1925 20.165 13.1182C20.4275 13.245 20.69 13.3507 20.9533 13.4452ZM7.0805 40.7843C5.29166 40.2662 3.55591 39.5799 1.8965 38.7345C2.91425 38.0655 5.13125 36.4478 6.03275 34.5037C6.65075 34.989 8.07725 35.874 10.8553 36.5535C10.808 36.63 10.7502 36.7118 10.6947 36.792C8.32325 36.171 6.97475 35.3857 6.953 35.3722L6.626 35.1772L6.46925 35.5275C6.263 35.9865 5.77925 36.0555 5.51 36.0555C5.435 36.0555 5.38475 36.0503 5.378 36.0495L5.11025 36.0105L5.01275 36.267C4.81325 36.7905 3.99425 37.4745 3.69425 37.6942L3.19325 38.0618L3.76625 38.2965C3.97925 38.3835 4.037 38.4637 4.04 38.4847C4.0475 38.5365 3.95675 38.673 3.86 38.7517L3.4235 39.1035L3.93125 39.3382C4.9715 39.8182 6.14975 40.2157 7.328 40.5435C7.23425 40.6357 7.15325 40.7145 7.0805 40.7843ZM13.1285 37.9897C14.177 38.1367 15.3387 38.2298 16.6077 38.2298H16.6085C16.8725 38.2298 17.1403 38.2253 17.4132 38.217C17.4314 38.2736 17.4574 38.3274 17.4905 38.3767C17.5572 38.478 17.6472 38.562 17.7612 38.6273L15.8472 40.263C15.8108 40.2614 15.7743 40.2607 15.7377 40.2607C14.885 40.2607 14.249 40.5742 13.9437 41.1322C12.7872 40.9847 11.6361 40.7979 10.4923 40.572C11.4117 39.7538 12.2915 38.8921 13.1285 37.9897ZM4.61675 38.8875C4.69175 38.7458 4.7405 38.574 4.71425 38.3865C4.68932 38.2173 4.60822 38.0615 4.484 37.944C4.82075 37.6553 5.285 37.2098 5.54 36.7485C6.11975 36.7402 6.59825 36.5205 6.89975 36.132C7.4075 36.3975 8.55125 36.9338 10.241 37.3988C9.55025 38.265 8.6195 39.2475 7.89575 39.978C6.76775 39.6795 5.6315 39.3195 4.61675 38.8875ZM15.305 42.0443L15.1512 42.045C14.5055 42.045 12.3658 41.9925 9.539 41.4038C9.638 41.3198 9.74075 41.2335 9.836 41.151C12.1295 41.6302 13.979 41.8357 14.1178 41.8515L14.3923 41.8807L14.477 41.6145C14.6622 41.04 15.3455 40.9552 15.737 40.9552C15.8442 40.9552 15.9155 40.962 15.9237 40.9627L16.0693 40.9785L19.394 38.1375L18.5052 38.1082C18.2083 38.0978 18.083 38.031 18.0522 37.9852L18.2405 37.4925L17.72 37.5143C17.3405 37.5308 16.97 37.539 16.6077 37.539H16.607C15.56 37.539 14.5887 37.47 13.691 37.3612L13.8995 37.1152C15.7115 37.3575 17.8812 37.5068 20.501 37.488C19.8755 38.3655 18.3155 40.2307 15.305 42.0443ZM22.823 38.7855V40.1543C22.3962 40.1543 21.9808 40.1528 21.5743 40.1497L21.452 38.6092L20.4365 38.6917C21.1205 37.8833 21.4122 37.344 21.4385 37.2952L21.7137 36.7747L21.1325 36.7853C15.569 36.8872 11.9405 36.2243 9.65 35.4878C9.48275 34.8113 9.386 34.0462 9.386 33.153C9.386 27.0607 13.2792 17.8522 18.4482 14.1202C19.364 15.006 20.753 15.3937 22.073 14.532C22.3625 14.343 22.6145 14.0955 22.8507 13.8323C22.907 13.8338 22.9648 13.8465 23.0217 13.8465C23.2107 13.8465 23.4028 13.8308 23.594 13.8068C23.8363 13.9035 24.0732 14.001 24.293 14.0978C25.3452 14.5613 26.2438 14.2733 26.8573 13.6343C31.592 16.4993 35.3855 24.078 36.3838 30.204C34.2192 31.0695 30.7857 31.914 25.5163 32.0625C26.5557 31.4685 27.3358 30.4695 27.0553 29.157C26.7605 27.7695 25.601 27.3795 24.4002 27.3158C24.3973 26.664 24.3972 26.0138 24.4017 25.362C24.77 25.5248 25.1232 25.7122 25.4442 25.9125C26.0112 26.2687 26.5243 25.3455 25.961 24.9893C25.4726 24.6822 24.9514 24.4309 24.407 24.24C24.4145 23.4855 24.4182 22.7325 24.4182 21.9795C24.419 21.2895 23.3938 21.2895 23.3938 21.9795C23.3938 22.6418 23.3893 23.3032 23.3833 23.964C22.8375 23.8689 22.2803 23.8595 21.7318 23.9363C21.6426 23.4398 21.5345 22.947 21.4078 22.4587C21.2383 21.7943 20.2482 22.0755 20.42 22.7423C20.546 23.2215 20.6488 23.6985 20.7335 24.1823C20.69 24.1987 20.6427 24.207 20.6 24.2265C19.211 24.7762 18.3635 26.178 19.3797 27.4852C19.853 28.0942 20.4718 28.3403 21.149 28.422C21.1857 29.3242 21.209 30.2273 21.2352 31.1287C20.7815 30.834 20.3682 30.456 19.994 30.0563C19.5305 29.5673 18.8067 30.3225 19.2695 30.8108C19.8987 31.4805 20.5595 31.9868 21.2757 32.3108C21.308 33.081 21.3538 33.8535 21.4288 34.62C21.4948 35.3003 22.5208 35.304 22.454 34.62C22.3908 33.957 22.344 33.2926 22.3137 32.6273C22.7037 32.6947 23.1132 32.712 23.5482 32.6707C23.597 33.3802 23.654 34.0897 23.735 34.7992C23.7815 35.2057 24.17 35.3655 24.4565 35.283L24.3927 36.756C23.9412 36.7965 23.4807 36.834 23.0007 36.8655L22.4293 36.903L22.7337 37.395C22.7645 37.4445 23.1102 37.9912 23.882 38.787H22.823V38.7855ZM41.489 33.849C40.5462 34.2923 39.3538 34.6987 38.1388 35.0535C37.3918 34.2817 36.4362 33.252 35.723 32.3385C37.3123 31.857 38.2018 31.3605 38.603 31.0928C38.9202 31.3725 39.3403 31.518 39.8375 31.5173C40.0025 31.5173 40.1488 31.5015 40.2612 31.4835C40.6213 31.95 41.2017 32.4885 41.5648 32.8102C41.393 32.9865 41.3097 33.1815 41.3165 33.3923C41.3225 33.5723 41.3945 33.7253 41.489 33.849ZM36.1227 36.3135C36.2758 36.4485 36.434 36.5865 36.5952 36.726C33.5547 37.5322 31.292 37.62 30.7992 37.6283C27.6507 35.7075 26.0188 33.675 25.3895 32.76C28.0243 32.694 30.2023 32.4555 32.0188 32.127C32.0926 32.2177 32.1674 32.3077 32.243 32.397C30.783 32.6244 29.3115 32.7704 27.8352 32.8343L27.23 32.8597L27.563 33.369C27.5623 33.3698 27.4947 33.4958 27.0477 33.5827L26.321 33.7245L29.894 36.6173L30.0605 36.5723C30.0643 36.5715 30.3792 36.4867 30.7603 36.4867C31.31 36.4867 31.6858 36.654 31.8748 36.981L31.9948 37.188L32.228 37.1468C33.5344 36.9086 34.8333 36.6307 36.1227 36.3135ZM25.55 34.1092L24.6965 34.0628C24.6568 33.6367 24.617 33.2108 24.587 32.7848C24.737 33.0338 25.0445 33.5018 25.55 34.1092ZM24.494 31.3635C24.4448 30.3539 24.415 29.3435 24.4048 28.3328C24.5278 28.3372 24.6493 28.3485 24.7648 28.365C26.0907 28.566 26.4373 30.0405 25.4022 30.87C25.1322 31.0837 24.821 31.2405 24.494 31.3635ZM32.3232 36.4275C31.9872 36.0127 31.4525 35.7952 30.761 35.7952C30.4722 35.7952 30.218 35.8342 30.0575 35.8657L27.8113 34.0455C27.998 33.9383 28.124 33.8025 28.193 33.636C28.21 33.5946 28.223 33.5516 28.232 33.5077C30.0125 33.4102 31.5125 33.2325 32.7808 33.015C33.3958 33.7013 34.2995 34.6478 35.498 35.748C34.0257 36.0983 32.798 36.3382 32.3232 36.4275ZM23.3787 28.3597C23.393 29.4465 23.42 30.5362 23.4778 31.6222C23.381 31.6372 23.2858 31.656 23.1905 31.6658C22.868 31.7025 22.562 31.6755 22.271 31.602C22.2342 30.552 22.2102 29.4998 22.1705 28.449C22.574 28.4303 22.9827 28.3905 23.3787 28.3597ZM22.1188 27.411C22.0719 26.5869 21.9943 25.7648 21.8862 24.9465C22.3834 24.8782 22.8889 24.9039 23.3765 25.0222C23.3711 25.789 23.3699 26.5557 23.3728 27.3225C23.0435 27.3405 22.7308 27.372 22.4555 27.3967C22.3435 27.4055 22.2311 27.4102 22.1188 27.411ZM21.0897 27.2798C21.026 27.2625 20.963 27.249 20.8978 27.2273C20.5977 27.1255 20.326 26.9541 20.105 26.727C19.4645 26.1293 20.3435 25.5428 20.8978 25.2645C20.9848 25.932 21.0448 26.6055 21.0897 27.2798ZM29.3675 41.8792C26.1118 40.2158 24.365 38.367 23.6712 37.5105C24.17 37.473 24.6418 37.428 25.109 37.3807L30.4475 40.8457L42.155 37.6297C36.1175 41.2687 30.1528 41.823 29.3675 41.8792ZM39.0365 35.9618C38.9405 35.8657 38.8257 35.7518 38.69 35.6145C40.022 35.211 41.3105 34.743 42.2712 34.2285L42.8555 33.9143L42.263 33.6128C42.1302 33.5445 42.0005 33.4193 41.9983 33.372C41.9998 33.354 42.0522 33.258 42.2795 33.1275L42.713 32.8785L42.3275 32.5575C42.3155 32.5477 41.1133 31.5495 40.691 30.9067L40.5515 30.6968L40.3122 30.7665C40.31 30.7665 40.1045 30.8258 39.8375 30.8258C39.425 30.8265 39.116 30.6915 38.918 30.426L38.699 30.1357L38.4245 30.372C38.4103 30.384 37.5605 31.0807 35.2812 31.7393C35.2062 31.6311 35.1339 31.5211 35.0645 31.4093C37.8282 30.5715 39.2405 29.5575 39.8525 29.0025C40.835 31.128 43.1742 32.8402 44.1898 33.5115C42.5584 34.4987 40.8319 35.3196 39.0365 35.9618Z" fill="#263238" fill-opacity="0.4"/>
</svg>
